<svg width="24" height="22" viewBox="0 0 24 22" fill="none" xmlns="http://www.w3.org/2000/svg">
<path fill-rule="evenodd" clip-rule="evenodd" d="M20.1579 5.5303L20.1579 1.51274C20.1579 1.17239 19.882 0.896484 19.5417 0.896484H4.43042C4.09007 0.896484 3.81416 1.17239 3.81416 1.51274L3.81416 5.5303H1.56426C1.22391 5.5303 0.947998 5.80621 0.947998 6.14656V20.2802C0.947998 20.6206 1.22391 20.8965 1.56426 20.8965H22.4813C22.8217 20.8965 23.0976 20.6206 23.0976 20.2802V6.14656C23.0976 5.80621 22.8217 5.5303 22.4813 5.5303H20.1579ZM4.16775 10.5346L11.7234 14.0947C11.8897 14.1731 12.0824 14.1731 12.2487 14.0947L19.8044 10.5346C20.0202 10.4329 20.1579 10.2158 20.1579 9.97717L20.1579 6.14656H22.4813V9.28511L12.0018 14.2407L1.56426 9.30499V6.14656H3.81416L3.81416 9.97717C3.81416 10.2158 3.9519 10.4329 4.16775 10.5346ZM1.56426 20.2802V9.98668L12.0018 14.9224L22.4813 9.9668V20.2802L1.56426 20.2802Z" stroke="#828282"/>
<path d="M10.6464 6.20265C11.0818 6.23963 11.5572 6.19616 11.8662 5.88716L13.8939 3.85943C14.1108 3.64258 14.4623 3.64258 14.6792 3.85943L14.81 3.9903C14.9546 4.13487 14.9546 4.36925 14.81 4.51381C14.6655 4.65837 14.6655 4.89276 14.81 5.03732L14.941 5.16822C15.1578 5.38506 15.1578 5.73661 14.941 5.95348L14.4174 6.47725C14.2006 6.69413 13.849 6.69415 13.6321 6.4773C13.4153 6.26048 13.0638 6.26048 12.8469 6.4773L12.6007 6.72357C12.322 7.00225 12.2796 7.4295 12.3275 7.82069C12.3537 8.03466 12.3425 8.25323 12.2928 8.46647C12.1924 8.8969 11.9413 9.27723 11.585 9.53873C11.2287 9.80023 10.7906 9.92567 10.3498 9.89237C9.90909 9.85908 9.49479 9.66925 9.18179 9.35718C8.86863 9.04452 8.67784 8.63002 8.64398 8.1888C8.61012 7.74758 8.73544 7.30883 8.99722 6.95205C9.25901 6.59527 9.63994 6.34408 10.071 6.24398C10.2609 6.19988 10.4551 6.1864 10.6464 6.20265ZM11.0141 8.57155C11.0848 8.50324 11.1412 8.42153 11.18 8.33119C11.2188 8.24086 11.2392 8.14369 11.2401 8.04537C11.2409 7.94706 11.2222 7.84955 11.185 7.75855C11.1478 7.66755 11.0928 7.58488 11.0232 7.51535C10.9537 7.44583 10.871 7.39085 10.78 7.35362C10.689 7.31639 10.5915 7.29765 10.4932 7.2985C10.3949 7.29936 10.2977 7.31979 10.2074 7.35859C10.1171 7.3974 10.0354 7.45381 9.96705 7.52453C9.83217 7.66419 9.75754 7.85123 9.75922 8.04537C9.76091 8.23952 9.83879 8.42524 9.97607 8.56253C10.1134 8.69981 10.2991 8.77769 10.4932 8.77937C10.6874 8.78106 10.8744 8.70643 11.0141 8.57155Z" fill="#828282"/>
</svg>
