<svg width="24" height="25" viewBox="0 0 24 25" fill="none" xmlns="http://www.w3.org/2000/svg">
<path d="M12 23.3041C18.075 23.3041 23 18.3791 23 12.3041C23 6.22908 18.075 1.30408 12 1.30408C5.925 1.30408 1 6.22908 1 12.3041C1 14.0641 1.413 15.7271 2.148 17.2021C2.343 17.5941 2.408 18.0421 2.295 18.4651L1.64 20.9131C1.57523 21.1554 1.57532 21.4104 1.64027 21.6527C1.70522 21.8949 1.83274 22.1159 2.01004 22.2932C2.18734 22.4706 2.40817 22.5983 2.65038 22.6634C2.89259 22.7285 3.14767 22.7287 3.39 22.6641L5.84 22.0091C6.26455 21.903 6.71319 21.9553 7.102 22.1561C8.62357 22.9133 10.3004 23.3064 12 23.3041Z" fill="#F5FCFF"/>
<path d="M8.40566 14.474L8.78652 13.4193H12.6068L12.9877 14.474H8.40566ZM9.89395 8.56189C9.91738 8.49548 9.94473 8.4447 9.97598 8.40955C10.0072 8.37048 10.0443 8.34314 10.0873 8.32751C10.1342 8.31189 10.1928 8.30408 10.2631 8.30408H11.1361C11.2064 8.30408 11.2631 8.31189 11.3061 8.32751C11.3529 8.34314 11.392 8.37048 11.4232 8.40955C11.4545 8.4447 11.4818 8.49548 11.5053 8.56189L14.3646 16.4369C14.3881 16.5033 14.3939 16.5599 14.3822 16.6068C14.3705 16.6537 14.3432 16.6908 14.3002 16.7181C14.2611 16.7455 14.2064 16.7592 14.1361 16.7592H13.3744C13.3041 16.7592 13.2455 16.7513 13.1986 16.7357C13.1557 16.7201 13.1186 16.6947 13.0873 16.6595C13.06 16.6205 13.0346 16.5658 13.0111 16.4955L10.7143 9.70447H10.685L8.37637 16.4955C8.35684 16.5658 8.33145 16.6205 8.3002 16.6595C8.27285 16.6947 8.23574 16.7201 8.18887 16.7357C8.1459 16.7513 8.08926 16.7592 8.01895 16.7592H7.25723C7.18301 16.7592 7.12441 16.7455 7.08145 16.7181C7.04238 16.6908 7.01699 16.6537 7.00527 16.6068C6.99355 16.5599 7.00137 16.5033 7.02871 16.4369L9.89395 8.56189Z" fill="#909EC0"/>
<path d="M15.7123 16.7592C15.642 16.7592 15.5854 16.7494 15.5424 16.7299C15.4994 16.7064 15.4662 16.6732 15.4428 16.6302C15.4232 16.5834 15.4135 16.5267 15.4135 16.4603V8.60291C15.4135 8.5365 15.4232 8.48181 15.4428 8.43884C15.4662 8.39197 15.4994 8.35876 15.5424 8.33923C15.5854 8.3158 15.642 8.30408 15.7123 8.30408H16.4271C16.4975 8.30408 16.5541 8.3158 16.5971 8.33923C16.64 8.35876 16.6713 8.39197 16.6908 8.43884C16.7143 8.48181 16.726 8.5365 16.726 8.60291V16.4603C16.726 16.5267 16.7143 16.5834 16.6908 16.6302C16.6713 16.6732 16.64 16.7064 16.5971 16.7299C16.5541 16.7494 16.4975 16.7592 16.4271 16.7592H15.7123Z" fill="#909EC0"/>
</svg>
