<svg width="24" height="25" viewBox="0 0 24 25" fill="none" xmlns="http://www.w3.org/2000/svg">
<path opacity="0.5" d="M6.96 2.30408C7.378 2.30408 7.716 2.61408 7.716 2.99608V4.39408C8.386 4.38208 9.138 4.38208 9.984 4.38208H14.016C14.862 4.38208 15.613 4.38208 16.284 4.39408V2.99608C16.284 2.61408 16.622 2.30408 17.04 2.30408C17.458 2.30408 17.796 2.61408 17.796 2.99608V4.45408C19.246 4.56008 20.199 4.82208 20.899 5.46208C21.599 6.10308 21.884 6.97508 22 8.30408V9.30408H2V8.30408C2.116 6.97508 2.401 6.10408 3.101 5.46208C3.801 4.82208 4.753 4.56008 6.204 4.45408V2.99608C6.204 2.61408 6.543 2.30408 6.96 2.30408Z" fill="white"/>
<path d="M21.9737 9.3042C21.9867 9.96926 22 11.4652 22 12.3042V14.3042C22 18.0751 22.0021 19.9603 20.8301 21.1323C19.6581 22.3043 17.7739 22.3042 14.0039 22.3042H10.0039C6.23404 22.3042 4.34883 22.3042 3.17582 21.1323C2.00583 19.9613 2.0059 18.0751 2.0059 14.3042V12.3042C2.0059 11.4653 1.9929 9.96926 2.0059 9.3042H21.9737ZM16 13.5542C15.8011 13.5542 15.6104 13.6333 15.4698 13.7739C15.3291 13.9146 15.25 14.1053 15.25 14.3042V15.5542H14C13.8011 15.5542 13.6104 15.6333 13.4698 15.7739C13.3291 15.9146 13.25 16.1053 13.25 16.3042C13.2501 16.5031 13.3291 16.6938 13.4698 16.8345C13.6104 16.975 13.8012 17.0542 14 17.0542H15.25V18.3042C15.2501 18.5031 15.3291 18.6938 15.4698 18.8345C15.6104 18.975 15.8012 19.0542 16 19.0542C16.1989 19.0542 16.3897 18.9751 16.5303 18.8345C16.6709 18.6939 16.75 18.5031 16.75 18.3042V17.0542H18C18.1989 17.0542 18.3897 16.9751 18.5303 16.8345C18.6709 16.6939 18.75 16.5031 18.75 16.3042C18.75 16.1053 18.6709 15.9146 18.5303 15.7739C18.3897 15.6333 18.1989 15.5542 18 15.5542H16.75V14.3042C16.75 14.1053 16.6709 13.9146 16.5303 13.7739C16.3897 13.6333 16.1989 13.5542 16 13.5542Z" fill="#F5FCFF"/>
</svg>
