<svg width="24" height="24" viewBox="0 0 24 24" fill="none" xmlns="http://www.w3.org/2000/svg">
<path fill-rule="evenodd" clip-rule="evenodd" d="M12 22C17.523 22 22 17.523 22 12C22 6.477 17.523 2 12 2C6.477 2 2 6.477 2 12C2 17.523 6.477 22 12 22ZM12 16C13.0609 16 14.0783 15.5786 14.8284 14.8284C15.5786 14.0783 16 13.0609 16 12C16 10.9391 15.5786 9.92172 14.8284 9.17157C14.0783 8.42143 13.0609 8 12 8C10.9391 8 9.92172 8.42143 9.17157 9.17157C8.42143 9.92172 8 10.9391 8 12C8 13.0609 8.42143 14.0783 9.17157 14.8284C9.92172 15.5786 10.9391 16 12 16Z" fill="#F5FCFF"/>
<path d="M5.479 19.582L9.751 15.309C9.33402 15.0256 8.97437 14.666 8.691 14.249L4.418 18.52C4.74533 18.9 5.09867 19.2533 5.478 19.58M4.418 5.47999L8.691 9.75199C8.97437 9.33502 9.33402 8.97537 9.751 8.69199L5.48 4.41699C5.1 4.74499 4.74633 5.09866 4.419 5.47799M14.248 8.69099L18.52 4.41999C18.9 4.74666 19.2533 5.09999 19.58 5.47999L15.31 9.75199C15.0263 9.33492 14.6663 8.97527 14.249 8.69199M19.581 18.521L15.308 14.248C15.0246 14.665 14.665 15.0246 14.248 15.308L18.52 19.582C18.9007 19.2547 19.2543 18.901 19.581 18.521Z" fill="#909EC0"/>
</svg>
