<svg width="24" height="24" viewBox="0 0 24 24" fill="none" xmlns="http://www.w3.org/2000/svg">
<g clip-path="url(#clip0_23107_299713)">
<path fill-rule="evenodd" clip-rule="evenodd" d="M21.5321 11.5861L20.7501 10.9601V21.2501H22.0001C22.199 21.2501 22.3897 21.3291 22.5304 21.4698C22.671 21.6104 22.7501 21.8012 22.7501 22.0001C22.7501 22.199 22.671 22.3898 22.5304 22.5305C22.3897 22.6711 22.199 22.7501 22.0001 22.7501H2.00006C1.80115 22.7501 1.61038 22.6711 1.46973 22.5305C1.32908 22.3898 1.25006 22.199 1.25006 22.0001C1.25006 21.8012 1.32908 21.6104 1.46973 21.4698C1.61038 21.3291 1.80115 21.2501 2.00006 21.2501H3.25006V10.9601L2.46906 11.5861C2.39211 11.6477 2.30379 11.6934 2.20915 11.7208C2.1145 11.7482 2.0154 11.7567 1.91748 11.7458C1.81956 11.7349 1.72475 11.7048 1.63845 11.6572C1.55216 11.6097 1.47609 11.5456 1.41456 11.4686C1.35304 11.3917 1.30727 11.3034 1.27988 11.2087C1.25249 11.1141 1.24401 11.015 1.25492 10.917C1.26583 10.8191 1.29592 10.7243 1.34347 10.638C1.39102 10.5517 1.45511 10.4757 1.53206 10.4141L9.65706 3.91413C10.322 3.38199 11.1484 3.09207 12.0001 3.09207C12.8518 3.09207 13.6781 3.38199 14.3431 3.91413L22.4681 10.4141C22.5463 10.4751 22.6117 10.5511 22.6605 10.6375C22.7092 10.724 22.7403 10.8193 22.7519 10.9178C22.7635 11.0164 22.7555 11.1163 22.7282 11.2117C22.701 11.3071 22.655 11.3962 22.5931 11.4737C22.5312 11.5513 22.4545 11.6158 22.3674 11.6635C22.2804 11.7111 22.1847 11.7411 22.086 11.7515C21.9874 11.762 21.8876 11.7528 21.7925 11.7244C21.6974 11.696 21.6089 11.649 21.5321 11.5861ZM12.0001 6.75013C11.2707 6.75013 10.5712 7.03986 10.0555 7.55558C9.53979 8.07131 9.25006 8.77078 9.25006 9.50013C9.25006 10.2295 9.53979 10.9289 10.0555 11.4447C10.5712 11.9604 11.2707 12.2501 12.0001 12.2501C12.7294 12.2501 13.4289 11.9604 13.9446 11.4447C14.4603 10.9289 14.7501 10.2295 14.7501 9.50013C14.7501 8.77078 14.4603 8.07131 13.9446 7.55558C13.4289 7.03986 12.7294 6.75013 12.0001 6.75013ZM13.7461 13.3121C13.2871 13.2501 12.7141 13.2501 12.0491 13.2501H11.9511C11.2861 13.2501 10.7131 13.2501 10.2541 13.3121C9.76306 13.3781 9.29106 13.5271 8.90906 13.9091C8.52706 14.2911 8.37806 14.7631 8.31206 15.2541C8.25006 15.7131 8.25006 16.2861 8.25006 16.9511V21.2501H15.7501V16.8271C15.7501 16.2151 15.7461 15.6841 15.6881 15.2541C15.6221 14.7631 15.4731 14.2911 15.0911 13.9091C14.7091 13.5271 14.2381 13.3781 13.7461 13.3121Z" fill="white"/>
<g opacity="0.5">
<path d="M10.7501 9.50012C10.7501 9.1686 10.8818 8.85066 11.1162 8.61624C11.3506 8.38182 11.6685 8.25012 12.0001 8.25012C12.3316 8.25012 12.6495 8.38182 12.8839 8.61624C13.1184 8.85066 13.2501 9.1686 13.2501 9.50012C13.2501 9.83164 13.1184 10.1496 12.8839 10.384C12.6495 10.6184 12.3316 10.7501 12.0001 10.7501C11.6685 10.7501 11.3506 10.6184 11.1162 10.384C10.8818 10.1496 10.7501 9.83164 10.7501 9.50012Z" fill="white"/>
<path d="M10.7501 9.50012C10.7501 9.1686 10.8818 8.85066 11.1162 8.61624C11.3506 8.38182 11.6685 8.25012 12.0001 8.25012C12.3316 8.25012 12.6495 8.38182 12.8839 8.61624C13.1184 8.85066 13.2501 9.1686 13.2501 9.50012C13.2501 9.83164 13.1184 10.1496 12.8839 10.384C12.6495 10.6184 12.3316 10.7501 12.0001 10.7501C11.6685 10.7501 11.3506 10.6184 11.1162 10.384C10.8818 10.1496 10.7501 9.83164 10.7501 9.50012Z" fill="white"/>
</g>
<path opacity="0.5" d="M12.0501 13.2501C12.7141 13.2501 13.2871 13.2501 13.7461 13.3121C14.2381 13.3781 14.7091 13.5271 15.0911 13.9091C15.4731 14.2911 15.6221 14.7621 15.6881 15.2541C15.7461 15.6841 15.7501 16.2141 15.7501 16.8271V21.2501H8.25006V16.9501C8.25006 16.2861 8.25006 15.7131 8.31206 15.2541C8.37806 14.7621 8.52706 14.2911 8.90906 13.9091C9.29106 13.5271 9.76306 13.3781 10.2541 13.3121C10.7131 13.2501 11.2861 13.2501 11.9511 13.2501H12.0501ZM16.0001 3.00012H18.5001C18.6327 3.00012 18.7598 3.0528 18.8536 3.14657C18.9474 3.24034 19.0001 3.36751 19.0001 3.50012V7.64012L15.5001 4.84012V3.50012C15.5001 3.36751 15.5527 3.24034 15.6465 3.14657C15.7403 3.0528 15.8675 3.00012 16.0001 3.00012Z" fill="white"/>
</g>
<defs>
<clipPath id="clip0_23107_299713">
<rect width="24" height="24" fill="white"/>
</clipPath>
</defs>
</svg>
