<svg width="33" height="34" viewBox="0 0 33 34" fill="none" xmlns="http://www.w3.org/2000/svg">
<rect y="2" width="32" height="32" rx="16" fill="#F5F8FF"/>
<path d="M19.7365 23.75C19.6665 24.563 19.4665 25.404 19.0405 26.11C18.4485 27.09 17.4525 27.75 15.9985 27.75C14.5455 27.75 13.5495 27.09 12.9585 26.11C12.5315 25.404 12.3315 24.563 12.2615 23.75H9.36552C8.76952 23.75 8.23652 23.602 7.83952 23.253C7.43652 22.897 7.27352 22.422 7.25152 21.973C7.21152 21.127 7.65652 20.231 8.22752 19.664C8.90752 18.988 9.21252 18.062 9.36552 16.915C9.44152 16.344 9.47652 15.746 9.51152 15.119L9.51552 15.053C9.54952 14.457 9.58452 13.833 9.65952 13.231C9.81552 11.99 10.1595 10.695 11.1675 9.731C12.1815 8.758 13.7295 8.25 15.9985 8.25C18.2685 8.25 19.8165 8.759 20.8305 9.73C21.8385 10.695 22.1825 11.99 22.3385 13.231C22.4135 13.833 22.4485 14.457 22.4825 15.053L22.4855 15.119C22.5215 15.746 22.5555 16.344 22.6325 16.915C22.7855 18.062 23.0905 18.988 23.7705 19.665C24.3585 20.249 24.7985 21.15 24.7455 21.999C24.7175 22.447 24.5455 22.915 24.1425 23.262C23.7465 23.604 23.2195 23.75 22.6325 23.75H19.7365Z" fill="#2B4182"/>
<rect x="22" width="11" height="11" rx="5.5" fill="#EE6161"/>
</svg>
