<svg width="24" height="25" viewBox="0 0 24 25" fill="none" xmlns="http://www.w3.org/2000/svg">
<path d="M12 16.3041C6.24003 16.3041 5.22003 10.5641 5.04003 6.01006C4.99003 4.74406 4.96403 4.11006 5.44003 3.52506C5.91603 2.93906 6.48503 2.84306 7.62403 2.65106C9.07053 2.41411 10.5343 2.29804 12 2.30406C13.783 2.30406 15.253 2.46106 16.377 2.65106C17.515 2.84306 18.085 2.93906 18.56 3.52506C19.036 4.11106 19.011 4.74406 18.96 6.01006C18.78 10.5631 17.76 16.3041 12 16.3041Z" fill="#F5FCFF"/>
<path d="M17.64 12.7261L20.457 11.1611C21.209 10.7431 21.585 10.5341 21.793 10.1821C22 9.83008 22 9.40008 22 8.53908V8.46608C22 7.42308 22 6.90108 21.717 6.50808C21.434 6.11508 20.939 5.95008 19.949 5.62008L19 5.30408L18.983 5.38908C18.9777 5.57774 18.9703 5.78474 18.961 6.01008C18.873 8.23508 18.584 10.7431 17.641 12.7261M5.04 6.01008C5.127 8.23508 5.416 10.7431 6.36 12.7261L3.543 11.1611C2.791 10.7431 2.414 10.5341 2.207 10.1821C2 9.83008 2 9.40008 2 8.53908V8.46608C2 7.42308 2 6.90108 2.283 6.50808C2.566 6.11508 3.061 5.95008 4.051 5.62008L5 5.30408L5.017 5.39108C5.02233 5.57841 5.02967 5.78508 5.039 6.01108" fill="#909EC0"/>
<path fill-rule="evenodd" clip-rule="evenodd" d="M5.25 22.3041C5.25 22.1052 5.32902 21.9144 5.46967 21.7737C5.61032 21.6331 5.80109 21.5541 6 21.5541H18C18.1989 21.5541 18.3897 21.6331 18.5303 21.7737C18.671 21.9144 18.75 22.1052 18.75 22.3041C18.75 22.503 18.671 22.6938 18.5303 22.8344C18.3897 22.9751 18.1989 23.0541 18 23.0541H6C5.80109 23.0541 5.61032 22.9751 5.46967 22.8344C5.32902 22.6938 5.25 22.503 5.25 22.3041Z" fill="#F5FCFF"/>
<path d="M15.458 21.5541H8.54297L8.83997 19.8041C8.88526 19.5775 9.00764 19.3735 9.1863 19.2269C9.36496 19.0804 9.58888 19.0002 9.81997 19.0001H14.18C14.4112 19 14.6354 19.08 14.8142 19.2266C14.9931 19.3732 15.1156 19.5773 15.161 19.8041L15.458 21.5541Z" fill="#F5FCFF"/>
<path d="M12 16.3041C11.74 16.3041 11.49 16.2927 11.25 16.2701V19.0001H12.75V16.2701C12.5007 16.2931 12.2504 16.3045 12 16.3041ZM11.146 6.32708C11.526 5.64408 11.716 5.30408 12 5.30408C12.284 5.30408 12.474 5.64408 12.854 6.32708L12.952 6.50308C13.06 6.69708 13.114 6.79308 13.198 6.85708C13.283 6.92108 13.388 6.94508 13.598 6.99208L13.788 7.03608C14.526 7.20308 14.895 7.28608 14.983 7.56808C15.071 7.85008 14.819 8.14508 14.316 8.73308L14.186 8.88508C14.043 9.05208 13.971 9.13508 13.939 9.23908C13.907 9.34308 13.918 9.45408 13.939 9.67708L13.959 9.88008C14.035 10.6651 14.073 11.0581 13.844 11.2321C13.614 11.4061 13.268 11.2471 12.577 10.9291L12.399 10.8471C12.202 10.7571 12.104 10.7121 12 10.7121C11.896 10.7121 11.798 10.7571 11.601 10.8471L11.423 10.9291C10.732 11.2481 10.386 11.4061 10.156 11.2321C9.92604 11.0581 9.96504 10.6651 10.041 9.88008L10.061 9.67708C10.082 9.45408 10.093 9.34308 10.061 9.23908C10.029 9.13508 9.95704 9.05208 9.81404 8.88508L9.68404 8.73308C9.18104 8.14508 8.92904 7.85108 9.01704 7.56808C9.10504 7.28608 9.47404 7.20308 10.212 7.03608L10.402 6.99208C10.612 6.94508 10.717 6.92208 10.802 6.85708C10.886 6.79308 10.94 6.69708 11.048 6.50308L11.146 6.32708Z" fill="#909EC0"/>
</svg>
