<svg width="24" height="25" viewBox="0 0 24 25" fill="none" xmlns="http://www.w3.org/2000/svg">
<path d="M16 22.3041C14.114 22.3041 13.172 22.3041 12.586 21.7181C12.083 21.2161 12.012 20.4511 12.002 19.0541L12 17.5541V7.05408L12.002 5.55408C12.012 4.15708 12.083 3.39208 12.586 2.89008C13.172 2.30408 14.114 2.30408 16 2.30408H18C19.886 2.30408 20.828 2.30408 21.414 2.89008C22 3.47608 22 4.41808 22 6.30408V18.3041C22 20.1901 22 21.1321 21.414 21.7181C20.828 22.3041 19.886 22.3041 18 22.3041H16Z" fill="#F5FCFF"/>
<path d="M15 8.55408H12V10.0541H15C15.1989 10.0541 15.3897 9.97506 15.5303 9.83441C15.671 9.69375 15.75 9.50299 15.75 9.30408C15.75 9.10516 15.671 8.9144 15.5303 8.77375C15.3897 8.6331 15.1989 8.55408 15 8.55408ZM14 5.55408H12.002L12 7.05408H14C14.1989 7.05408 14.3897 6.97506 14.5303 6.83441C14.671 6.69376 14.75 6.50299 14.75 6.30408C14.75 6.10516 14.671 5.9144 14.5303 5.77375C14.3897 5.63309 14.1989 5.55408 14 5.55408ZM14 11.5541H12V13.0541H14C14.1989 13.0541 14.3897 12.9751 14.5303 12.8344C14.671 12.6938 14.75 12.503 14.75 12.3041C14.75 12.1052 14.671 11.9144 14.5303 11.7737C14.3897 11.6331 14.1989 11.5541 14 11.5541ZM15 14.5541H12V16.0541H15C15.1989 16.0541 15.3897 15.9751 15.5303 15.8344C15.671 15.6938 15.75 15.503 15.75 15.3041C15.75 15.1052 15.671 14.9144 15.5303 14.7737C15.3897 14.6331 15.1989 14.5541 15 14.5541ZM14 17.5541H12L12.002 19.0541H14C14.1989 19.0541 14.3897 18.9751 14.5303 18.8344C14.671 18.6938 14.75 18.503 14.75 18.3041C14.75 18.1052 14.671 17.9144 14.5303 17.7737C14.3897 17.6331 14.1989 17.5541 14 17.5541ZM8 15.2841V7.30408C7.04796 7.69422 6.02888 7.89464 5 7.89408C3.97112 7.89464 2.95204 7.69422 2 7.30408V15.2841C2 15.9061 2 16.2181 2.038 16.5241C2.08277 16.8841 2.1666 17.2382 2.288 17.5801C2.39 17.8701 2.529 18.1491 2.808 18.7061L4.276 21.6431C4.34311 21.7777 4.4464 21.8909 4.57429 21.97C4.70218 22.0492 4.8496 22.0911 5 22.0911C5.1504 22.0911 5.29782 22.0492 5.42571 21.97C5.5536 21.8909 5.65689 21.7777 5.724 21.6431L7.192 18.7061C7.471 18.1491 7.61 17.8711 7.712 17.5801C7.83347 17.2379 7.9173 16.8834 7.962 16.5231C8 16.2181 8 15.9061 8 15.2841Z" fill="#909EC0"/>
<path d="M5 2.30408C5.79565 2.30408 6.55871 2.62015 7.12132 3.18276C7.68393 3.74537 8 4.50843 8 5.30408V7.30408C7.04789 7.69388 6.02881 7.89396 5 7.89308C3.97119 7.89396 2.95211 7.69388 2 7.30408V5.30408C2 4.50843 2.31607 3.74537 2.87868 3.18276C3.44129 2.62015 4.20435 2.30408 5 2.30408Z" fill="#F5FCFF"/>
</svg>
