<svg width="25" height="25" viewBox="0 0 25 25" fill="none" xmlns="http://www.w3.org/2000/svg">
<path d="M3.09998 8.30408C3.09998 5.47608 3.09998 4.06108 3.97898 3.18308C4.85698 2.30408 6.27198 2.30408 9.09998 2.30408H15.1C17.928 2.30408 19.343 2.30408 20.221 3.18308C21.1 4.06108 21.1 5.47608 21.1 8.30408V16.3041C21.1 19.1321 21.1 20.5471 20.221 21.4251C19.343 22.3041 17.928 22.3041 15.1 22.3041H9.09998C6.27198 22.3041 4.85698 22.3041 3.97898 21.4251C3.09998 20.5471 3.09998 19.1321 3.09998 16.3041V8.30408Z" fill="#F5FCFF"/>
<path fill-rule="evenodd" clip-rule="evenodd" d="M8.84998 2.31607V22.3161H7.34998V2.31607H8.84998ZM1.34998 8.30407C1.34998 8.10516 1.42899 7.91439 1.56965 7.77374C1.7103 7.63309 1.90106 7.55407 2.09998 7.55407H4.09998C4.29889 7.55407 4.48965 7.63309 4.63031 7.77374C4.77096 7.91439 4.84998 8.10516 4.84998 8.30407C4.84998 8.50298 4.77096 8.69375 4.63031 8.8344C4.48965 8.97505 4.29889 9.05407 4.09998 9.05407H2.09998C1.90106 9.05407 1.7103 8.97505 1.56965 8.8344C1.42899 8.69375 1.34998 8.50298 1.34998 8.30407ZM1.34998 12.3041C1.34998 12.1052 1.42899 11.9144 1.56965 11.7737C1.7103 11.6331 1.90106 11.5541 2.09998 11.5541H4.09998C4.29889 11.5541 4.48965 11.6331 4.63031 11.7737C4.77096 11.9144 4.84998 12.1052 4.84998 12.3041C4.84998 12.503 4.77096 12.6937 4.63031 12.8344C4.48965 12.9751 4.29889 13.0541 4.09998 13.0541H2.09998C1.90106 13.0541 1.7103 12.9751 1.56965 12.8344C1.42899 12.6937 1.34998 12.503 1.34998 12.3041ZM1.34998 16.3041C1.34998 16.1052 1.42899 15.9144 1.56965 15.7737C1.7103 15.6331 1.90106 15.5541 2.09998 15.5541H4.09998C4.29889 15.5541 4.48965 15.6331 4.63031 15.7737C4.77096 15.9144 4.84998 16.1052 4.84998 16.3041C4.84998 16.503 4.77096 16.6937 4.63031 16.8344C4.48965 16.9751 4.29889 17.0541 4.09998 17.0541H2.09998C1.90106 17.0541 1.7103 16.9751 1.56965 16.8344C1.42899 16.6937 1.34998 16.503 1.34998 16.3041Z" fill="#909EC0"/>
<path d="M10.85 6.80408C10.85 6.60516 10.929 6.4144 11.0696 6.27375C11.2103 6.13309 11.4011 6.05408 11.6 6.05408H16.6C16.7989 6.05408 16.9897 6.13309 17.1303 6.27375C17.271 6.4144 17.35 6.60516 17.35 6.80408C17.35 7.00299 17.271 7.19376 17.1303 7.33441C16.9897 7.47506 16.7989 7.55408 16.6 7.55408H11.6C11.4011 7.55408 11.2103 7.47506 11.0696 7.33441C10.929 7.19376 10.85 7.00299 10.85 6.80408ZM10.85 10.3041C10.85 10.1052 10.929 9.9144 11.0696 9.77375C11.2103 9.6331 11.4011 9.55408 11.6 9.55408H16.6C16.7989 9.55408 16.9897 9.6331 17.1303 9.77375C17.271 9.9144 17.35 10.1052 17.35 10.3041C17.35 10.503 17.271 10.6938 17.1303 10.8344C16.9897 10.9751 16.7989 11.0541 16.6 11.0541H11.6C11.4011 11.0541 11.2103 10.9751 11.0696 10.8344C10.929 10.6938 10.85 10.503 10.85 10.3041Z" fill="#909EC0"/>
</svg>
