<svg width="24" height="24" viewBox="0 0 24 24" fill="none" xmlns="http://www.w3.org/2000/svg">
<path d="M2 16C2 13.172 2 11.757 2.879 10.879C3.757 10 5.172 10 8 10H16C18.828 10 20.243 10 21.121 10.879C22 11.757 22 13.172 22 16C22 18.828 22 20.243 21.121 21.121C20.243 22 18.828 22 16 22H8C5.172 22 3.757 22 2.879 21.121C2 20.243 2 18.828 2 16Z" fill="#F5FCFF"/>
<path d="M12.75 14C12.75 13.8011 12.671 13.6103 12.5303 13.4697C12.3897 13.329 12.1989 13.25 12 13.25C11.8011 13.25 11.6103 13.329 11.4697 13.4697C11.329 13.6103 11.25 13.8011 11.25 14V18C11.25 18.1989 11.329 18.3897 11.4697 18.5304C11.6103 18.671 11.8011 18.75 12 18.75C12.1989 18.75 12.3897 18.671 12.5303 18.5304C12.671 18.3897 12.75 18.1989 12.75 18V14ZM6.75 8.00002C6.74826 6.721 7.21349 5.48533 8.05833 4.52505C8.90317 3.56477 10.0695 2.94592 11.3383 2.78473C12.6072 2.62353 13.8912 2.93107 14.9493 3.64959C16.0074 4.36811 16.7669 5.4482 17.085 6.68702C17.1391 6.87461 17.2641 7.03373 17.4336 7.13057C17.6031 7.22742 17.8037 7.25436 17.9928 7.20566C18.1818 7.15697 18.3444 7.03648 18.446 6.8698C18.5477 6.70312 18.5803 6.50338 18.537 6.31302C18.1273 4.72112 17.1508 3.33341 15.7908 2.41028C14.4307 1.48715 12.7805 1.09203 11.1498 1.29907C9.51912 1.50612 8.02003 2.30108 6.9338 3.53481C5.84757 4.76855 5.24886 6.35625 5.25 8.00002V10.055C5.74935 10.0224 6.24959 10.0054 6.75 10.004V8.00002Z" fill="#909EC0"/>
</svg>
