<svg width="24" height="24" viewBox="0 0 24 24" fill="none" xmlns="http://www.w3.org/2000/svg">
<g clip-path="url(#clip0_24469_188590)">
<path d="M18.2429 14.7914C18.2429 14.7914 18.3196 17.1756 20.1964 18.6025C18.3881 20.9604 15.3897 22.5019 11.9971 22.5019C8.60441 22.5019 5.64748 20.9813 3.83547 18.6508C5.77763 17.23 5.85685 14.7914 5.85685 14.7914C5.5123 16.5264 3.76128 17.4731 3.20737 17.7329C2.43528 16.4386 1.99706 14.9544 1.99706 13.3771C1.99706 10.564 3.39221 8.04841 5.58586 6.37491C5.06653 5.26222 6.02095 3.97455 6.02095 3.97455C6.1008 4.89372 6.81692 5.2025 7.3306 5.30523C8.72324 4.63332 10.3114 4.25227 11.9971 4.25227C13.6827 4.25227 15.3903 4.66258 16.8207 5.38287C17.1696 5.33151 18.1511 5.09022 18.5088 3.99306C18.5088 3.99306 19.1784 5.60326 18.5881 6.51526C20.6773 8.18757 21.9971 10.6417 21.9971 13.3771C21.9971 14.9383 21.5676 16.4082 20.81 17.6934C20.1825 17.3859 18.5717 16.4482 18.2429 14.7914Z" fill="white"/>
<path d="M7.41736 2.77709L11.4174 1.6017C11.4174 1.6017 12.0228 1.37713 12.6541 1.6017L16.8666 2.90192C16.8666 2.90192 14.7069 4.05223 13.9172 3.80198C13.9172 3.80198 11.997 3.02555 10.2077 3.83722C10.2064 3.83722 8.25923 3.67775 7.41736 2.77709Z" fill="white"/>
<path d="M16.6113 2.96878V3.47287L16.4466 3.54334V4.41294H16.8408V3.54872L16.6755 3.47287L16.6792 2.9425L16.6113 2.96878Z" fill="#C92027"/>
<path d="M17.0426 13.6214C18.7667 13.6214 20.1643 12.2619 20.1643 10.585C20.1643 8.90798 18.7667 7.54852 17.0426 7.54852C15.3186 7.54852 13.921 8.90798 13.921 10.585C13.921 12.2619 15.3186 13.6214 17.0426 13.6214Z" fill="white"/>
<path d="M7.23943 13.6686C8.96347 13.6686 10.3611 12.3091 10.3611 10.6321C10.3611 8.95516 8.96347 7.5957 7.23943 7.5957C5.51538 7.5957 4.11777 8.95516 4.11777 10.6321C4.11777 12.3091 5.51538 13.6686 7.23943 13.6686Z" fill="white"/>
<path d="M7.23943 12.6831C8.4374 12.6831 9.40856 11.7437 9.40856 10.585C9.40856 9.42619 8.4374 8.48682 7.23943 8.48682C6.04145 8.48682 5.0703 9.42619 5.0703 10.585C5.0703 11.7437 6.04145 12.6831 7.23943 12.6831Z" fill="#2B4182"/>
<path d="M17.0575 8.93964C17.9952 8.93964 18.7265 9.67119 18.7265 10.5383C18.7262 11.4051 17.995 12.1359 17.0575 12.1359C16.1202 12.1358 15.3889 11.4051 15.3886 10.5383C15.3886 9.67124 16.12 8.93973 17.0575 8.93964Z" fill="#2B4182" stroke="#2B4182"/>
<path d="M8.10897 9.82227C8.50379 9.82227 8.82384 9.52332 8.82384 9.15455C8.82384 8.78577 8.50379 8.48682 8.10897 8.48682C7.71416 8.48682 7.3941 8.78577 7.3941 9.15455C7.3941 9.52332 7.71416 9.82227 8.10897 9.82227Z" fill="white"/>
<path d="M17.7726 9.77448C18.1674 9.77448 18.4875 9.47553 18.4875 9.10675C18.4875 8.73798 18.1674 8.43903 17.7726 8.43903C17.3778 8.43903 17.0577 8.73798 17.0577 9.10675C17.0577 9.47553 17.3778 9.77448 17.7726 9.77448Z" fill="white"/>
<path opacity="0.35" d="M12.0191 9.71893C12.0191 9.71893 13.7418 9.71893 13.3727 11.5752C13.3727 11.5752 12.8496 14.5871 12.2649 14.405C12.2649 14.405 11.711 14.6481 10.9729 11.7574C10.9729 11.7574 10.4806 10.0534 12.0191 9.71893Z" fill="#010101"/>
<path d="M11.9895 9.96619C11.9895 9.96619 13.75 9.96619 13.3727 11.2282C13.3727 11.2282 12.8383 13.2774 12.241 13.1531C12.241 13.1531 11.6751 13.3186 10.9207 11.3524C10.9194 11.3524 10.4164 10.1937 11.9895 9.96619Z" fill="#F39120"/>
<path d="M11.9895 9.59174C11.9895 9.59174 13.75 9.59174 13.3727 10.7725C13.3727 10.7725 12.8383 12.6891 12.241 12.5732C12.241 12.5732 11.6751 12.7279 10.9207 10.889C10.9194 10.889 10.4164 9.80376 11.9895 9.59174Z" fill="#FDC20F"/>
<path d="M12.1593 10.447C12.435 10.447 12.6585 10.3604 12.6585 10.2535C12.6585 10.1466 12.435 10.06 12.1593 10.06C11.8836 10.06 11.66 10.1466 11.66 10.2535C11.66 10.3604 11.8836 10.447 12.1593 10.447Z" fill="white"/>
<path d="M21.543 3.15986H20.2698V1.90069C20.2698 1.7952 20.2275 1.69401 20.1523 1.61927C20.077 1.54454 19.9748 1.50235 19.8681 1.50195C19.8153 1.50195 19.7629 1.51228 19.7141 1.53234C19.6653 1.55239 19.6209 1.58179 19.5836 1.61883C19.5463 1.65588 19.5167 1.69985 19.4966 1.74821C19.4765 1.79658 19.4663 1.8484 19.4665 1.90069V3.15986H18.1933C18.1404 3.15966 18.088 3.16979 18.0391 3.18966C17.9902 3.20954 17.9457 3.23877 17.9083 3.27568C17.8708 3.31258 17.8411 3.35644 17.8208 3.40473C17.8005 3.45303 17.7901 3.5048 17.7901 3.5571C17.7901 3.60939 17.8005 3.66117 17.8208 3.70946C17.8411 3.75775 17.8708 3.80161 17.9083 3.83852C17.9457 3.87542 17.9902 3.90465 18.0391 3.92453C18.088 3.9444 18.1404 3.95453 18.1933 3.95433H19.4665V5.2135C19.4663 5.26579 19.4765 5.31761 19.4966 5.36598C19.5167 5.41435 19.5463 5.45831 19.5836 5.49536C19.6209 5.5324 19.6653 5.5618 19.7141 5.58186C19.7629 5.60191 19.8153 5.61223 19.8681 5.61223C19.9748 5.61183 20.077 5.56965 20.1523 5.49492C20.2275 5.42019 20.2698 5.31899 20.2698 5.2135V3.95433H21.543C21.5958 3.95453 21.6481 3.94439 21.697 3.9245C21.7458 3.90461 21.7902 3.87535 21.8275 3.83843C21.8648 3.8015 21.8944 3.75763 21.9145 3.70935C21.9346 3.66106 21.9449 3.60932 21.9447 3.5571C21.9449 3.50488 21.9346 3.45313 21.9145 3.40484C21.8944 3.35656 21.8648 3.31269 21.8275 3.27577C21.7902 3.23884 21.7458 3.20958 21.697 3.18969C21.6481 3.1698 21.5958 3.15966 21.543 3.15986Z" fill="white"/>
</g>
<defs>
<clipPath id="clip0_24469_188590">
<rect width="20" height="21" fill="white" transform="translate(1.99706 1.50195)"/>
</clipPath>
</defs>
</svg>
